{
  "accessors": [
    {
      "bufferView": 2,
      "componentType": 5126,
      "count": 65532,
      "max": [
        2.1765799522399902,
        5.866360187530518,
        7.518074035644531
      ],
      "min": [
        -2.2152700424194336,
        -5.526498794555664,
        0.03528200089931488
      ],
      "type": "VEC3"
    },
    {
      "bufferView": 2,
      "byteOffset": 786384,
      "componentType": 5126,
      "count": 65532,
      "max": [
        0.9999971985816956,
        0.9999982118606567,
        0.9999994039535522
      ],
      "min": [
        -0.9999994039535522,
        -0.9999998807907104,
        -0.9999998807907104
      ],
      "type": "VEC3"
    },
    {
      "bufferView": 3,
      "componentType": 5126,
      "count": 65532,
      "max": [
        0.9999993443489075,
        0.9999524354934692,
        1.0,
        1.0
      ],
      "min": [
        -0.9999995827674866,
        -0.9999985098838806,
        -0.9999984502792358,
        1.0
      ],
      "type": "VEC4"
    },
    {
      "bufferView": 1,
      "componentType": 5126,
      "count": 65532,
      "max": [
        0.9989920258522034,
        0.9999750256538391
      ],
      "min": [
        1.4999999621068127e-05,
        9.999999974752427e-07
      ],
      "type": "VEC2"
    },
    {
      "bufferView": 0,
      "componentType": 5125,
      "count": 335673,
      "type": "SCALAR"
    },
    {
      "bufferView": 2,
      "byteOffset": 1572768,
      "componentType": 5126,
      "count": 15775,
      "max": [
        2.1762099266052246,
        5.8317551612854,
        8.124418258666992
      ],
      "min": [
        -2.2051000595092773,
        -2.2650680541992188,
        0.05899899825453758
      ],
      "type": "VEC3"
    },
    {
      "bufferView": 2,
      "byteOffset": 1762068,
      "componentType": 5126,
      "count": 15775,
      "max": [
        0.9999908208847046,
        0.9999894499778748,
        0.9999980926513672
      ],
      "min": [
        -0.9999995827674866,
        -0.9999919533729553,
        -0.9999385476112366
      ],
      "type": "VEC3"
    },
    {
      "bufferView": 3,
      "byteOffset": 1048512,
      "componentType": 5126,
      "count": 15775,
      "max": [
        0.9999428987503052,
        0.999922513961792,
        0.9999292492866516,
        1.0
      ],
      "min": [
        -0.9999877214431763,
        -0.9999985098838806,
        -0.9998384714126587,
        1.0
      ],
      "type": "VEC4"
    },
    {
      "bufferView": 1,
      "byteOffset": 524256,
      "componentType": 5126,
      "count": 15775,
      "max": [
        0.9989640116691589,
        0.9983469843864441
      ],
      "min": [
        0.0001500000071246177,
        0.0009200000204145908
      ],
      "type": "VEC2"
    },
    {
      "bufferView": 0,
      "byteOffset": 1342692,
      "componentType": 5125,
      "count": 69513,
      "type": "SCALAR"
    }
  ],
  "asset": {
    "extras": {
      "author": "Lassi Kaukonen (https://sketchfab.com/thesidekick)",
      "license": "CC-BY-4.0 (http://creativecommons.org/licenses/by/4.0/)",
      "source": "https://sketchfab.com/3d-models/road-roller-02c2ffa7c88f40fca1718e568adebda6",
      "title": "Road Roller"
    },
    "generator": "Sketchfab-12.68.0",
    "version": "2.0"
  },
  "bufferViews": [
    {
      "buffer": 0,
      "byteLength": 1620744,
      "name": "floatBufferViews",
      "target": 34963
    },
    {
      "buffer": 0,
      "byteLength": 650456,
      "byteOffset": 1620744,
      "byteStride": 8,
      "name": "floatBufferViews",
      "target": 34962
    },
    {
      "buffer": 0,
      "byteLength": 1951368,
      "byteOffset": 2271200,
      "byteStride": 12,
      "name": "floatBufferViews",
      "target": 34962
    },
    {
      "buffer": 0,
      "byteLength": 1300912,
      "byteOffset": 4222568,
      "byteStride": 16,
      "name": "floatBufferViews",
      "target": 34962
    }
  ],
  "buffers": [
    {
      "byteLength": 5523480,
      "uri": "scene.bin"
    }
  ],
  "images": [
    {
      "uri": "textures/Road_Roller_baseColor.jpeg"
    },
    {
      "uri": "textures/Road_Roller_metallicRoughness.png"
    },
    {
      "uri": "textures/Road_Roller_normal.png"
    }
  ],
  "materials": [
    {
      "doubleSided": true,
      "name": "Road_Roller",
      "normalTexture": {
        "index": 2,
        "scale": 0.31181404709931226
      },
      "occlusionTexture": {
        "index": 1
      },
      "pbrMetallicRoughness": {
        "baseColorTexture": {
          "index": 0
        },
        "metallicFactor": 0.0,
        "metallicRoughnessTexture": {
          "index": 1
        }
      }
    }
  ],
  "meshes": [
    {
      "name": "Object_0",
      "primitives": [
        {
          "attributes": {
            "NORMAL": 1,
            "POSITION": 0,
            "TANGENT": 2,
            "TEXCOORD_0": 3
          },
          "indices": 4,
          "material": 0,
          "mode": 4
        }
      ]
    },
    {
      "name": "Object_1",
      "primitives": [
        {
          "attributes": {
            "NORMAL": 6,
            "POSITION": 5,
            "TANGENT": 7,
            "TEXCOORD_0": 8
          },
          "indices": 9,
          "material": 0,
          "mode": 4
        }
      ]
    }
  ],
  "nodes": [
    {
      "children": [
        1
      ],
      "matrix": [
        1.0,
        0.0,
        0.0,
        0.0,
        0.0,
        2.220446049250313e-16,
        -1.0,
        0.0,
        0.0,
        1.0,
        2.220446049250313e-16,
        0.0,
        0.0,
        0.0,
        0.0,
        1.0
      ],
      "name": "Sketchfab_model"
    },
    {
      "children": [
        2,
        3
      ],
      "name": "Road_Roller_SF.obj.cleaner.materialmerger.gles"
    },
    {
      "mesh": 0,
      "name": "Object_2"
    },
    {
      "mesh": 1,
      "name": "Object_3"
    }
  ],
  "samplers": [
    {
      "magFilter": 9729,
      "minFilter": 9987,
      "wrapS": 10497,
      "wrapT": 10497
    }
  ],
  "scene": 0,
  "scenes": [
    {
      "name": "Sketchfab_Scene",
      "nodes": [
        0
      ]
    }
  ],
  "textures": [
    {
      "sampler": 0,
      "source": 0
    },
    {
      "sampler": 0,
      "source": 1
    },
    {
      "sampler": 0,
      "source": 2
    }
  ]
}
